# xmcd
#
# Track frame offsets:
#	150
#	28098
#	51396
#	72444
#	96942
#	124365
#	147288
#	170136
#	195684
#	215607
#	236355
#
# Disc length: 3401 seconds
#
# Revision: 0
# Processed by: cddbd v1.5.2PL0 Copyright (c) Steve Scherf et al.
# Submitted via: EZCDAudioConverter 3.1.0.1
#
DISCID=ae0d470b
DTITLE=Bryce Janey - Delta Road
DYEAR=2015
DGENRE=Blues Rock
TTITLE0=Keep Marchin' On
TTITLE1=This Old Guitar
TTITLE2=Delta Road
TTITLE3=Shake The Walls (With Foot Stompin' Music)
TTITLE4=Feel Like A Stranger
TTITLE5=Better Off With The Blues
TTITLE6=Lonesome Highway
TTITLE7=World Of Trouble
TTITLE8=Same Old Thang
TTITLE9=Time Doesn't Wait
TTITLE10=Hellhound On My Trail
EXTD=
EXTT0=
EXTT1=
EXTT2=
EXTT3=
EXTT4=
EXTT5=
EXTT6=
EXTT7=
EXTT8=
EXTT9=
EXTT10=
PLAYORDER=
